<svg width="18" height="18" viewBox="0 0 18 18" fill="none" xmlns="http://www.w3.org/2000/svg">
<path d="M15.4439 9.87751C15.4776 9.59626 15.5001 9.30376 15.5001 9.00001C15.5001 8.69626 15.4776 8.40377 15.4326 8.12252L17.3339 6.63752C17.4154 6.56919 17.4711 6.47495 17.4916 6.37054C17.512 6.26612 17.4961 6.15784 17.4464 6.06377L15.6464 2.94752C15.5339 2.74502 15.2976 2.67752 15.0951 2.74502L12.8564 3.64502C12.3915 3.28616 11.8807 2.99105 11.3376 2.76752L11.0001 0.382528C10.9839 0.275224 10.9294 0.177417 10.8467 0.107127C10.764 0.0368373 10.6587 -0.00119808 10.5501 2.87795e-05H6.95013C6.84284 -0.0010601 6.73887 0.0372939 6.65799 0.107807C6.57711 0.178321 6.52494 0.276083 6.51139 0.382528L6.17389 2.76752C5.63172 2.99291 5.12118 3.28788 4.65514 3.64502L2.41639 2.74502C2.31558 2.70616 2.20407 2.70527 2.10266 2.74253C2.00124 2.77978 1.91682 2.85264 1.86514 2.94752L0.0651453 6.06377C0.00947723 6.15634 -0.00983598 6.26629 0.0109495 6.3723C0.0317351 6.4783 0.0911386 6.57282 0.177645 6.63752L2.07889 8.12252C2.03389 8.40377 2.00014 8.70751 2.00014 9.00001C2.00014 9.29251 2.02264 9.59626 2.06764 9.87751L0.166395 11.3625C0.0848288 11.4308 0.0291636 11.5251 0.00868978 11.6295C-0.011784 11.7339 0.00417214 11.8422 0.0538952 11.9363L1.85389 15.0525C1.96639 15.255 2.20264 15.3225 2.40514 15.255L4.64389 14.355C5.10878 14.7139 5.61955 15.009 6.16264 15.2325L6.50014 17.6175C6.54514 17.8425 6.72513 18 6.95013 18H10.5501C10.7751 18 10.9664 17.8425 10.9889 17.6175L11.3264 15.2325C11.8685 15.0071 12.3791 14.7121 12.8451 14.355L15.0839 15.255C15.2864 15.3338 15.5226 15.255 15.6351 15.0525L17.4351 11.9363C17.4908 11.8437 17.5101 11.7337 17.4893 11.6277C17.4685 11.5217 17.4091 11.4272 17.3226 11.3625L15.4439 9.87751ZM8.75013 12.375C6.89388 12.375 5.37514 10.8563 5.37514 9.00001C5.37514 7.14377 6.89388 5.62502 8.75013 5.62502C10.6064 5.62502 12.1251 7.14377 12.1251 9.00001C12.1251 10.8563 10.6064 12.375 8.75013 12.375Z" fill="#181C1F"/>
</svg>
