<svg width="23" height="18" viewBox="0 0 23 18" fill="none" xmlns="http://www.w3.org/2000/svg">
<path d="M4.90909 11.4545C4.90909 11.0028 4.74929 10.6172 4.42969 10.2976C4.11009 9.97798 3.72443 9.81818 3.27273 9.81818C2.82102 9.81818 2.43537 9.97798 2.11577 10.2976C1.79616 10.6172 1.63636 11.0028 1.63636 11.4545C1.63636 11.9063 1.79616 12.2919 2.11577 12.6115C2.43537 12.9311 2.82102 13.0909 3.27273 13.0909C3.72443 13.0909 4.11009 12.9311 4.42969 12.6115C4.74929 12.2919 4.90909 11.9063 4.90909 11.4545ZM7.36364 5.72727C7.36364 5.27557 7.20384 4.88992 6.88423 4.57031C6.56463 4.25071 6.17898 4.09091 5.72727 4.09091C5.27557 4.09091 4.88992 4.25071 4.57031 4.57031C4.25071 4.88992 4.09091 5.27557 4.09091 5.72727C4.09091 6.17898 4.25071 6.56463 4.57031 6.88423C4.88992 7.20384 5.27557 7.36364 5.72727 7.36364C6.17898 7.36364 6.56463 7.20384 6.88423 6.88423C7.20384 6.56463 7.36364 6.17898 7.36364 5.72727ZM12.8352 11.8764L14.1264 6.9929C14.1776 6.77131 14.1456 6.56463 14.0305 6.37287C13.9155 6.18111 13.7514 6.0554 13.5384 5.99574C13.3253 5.93608 13.1207 5.96378 12.9247 6.07884C12.7287 6.19389 12.6009 6.36222 12.5412 6.58381L11.25 11.4673C10.7386 11.5099 10.2827 11.6953 9.8821 12.0234C9.48153 12.3516 9.21307 12.7713 9.0767 13.2827C8.90625 13.9389 8.99148 14.5611 9.33239 15.1491C9.6733 15.7372 10.1719 16.1165 10.8281 16.2869C11.4844 16.4574 12.1065 16.3722 12.6946 16.0312C13.2827 15.6903 13.6619 15.1918 13.8324 14.5355C13.9688 14.0241 13.9432 13.5256 13.7557 13.0398C13.5682 12.554 13.2614 12.1662 12.8352 11.8764ZM21.2727 11.4545C21.2727 11.0028 21.1129 10.6172 20.7933 10.2976C20.4737 9.97798 20.0881 9.81818 19.6364 9.81818C19.1847 9.81818 18.799 9.97798 18.4794 10.2976C18.1598 10.6172 18 11.0028 18 11.4545C18 11.9063 18.1598 12.2919 18.4794 12.6115C18.799 12.9311 19.1847 13.0909 19.6364 13.0909C20.0881 13.0909 20.4737 12.9311 20.7933 12.6115C21.1129 12.2919 21.2727 11.9063 21.2727 11.4545ZM13.0909 3.27273C13.0909 2.82102 12.9311 2.43537 12.6115 2.11577C12.2919 1.79616 11.9063 1.63636 11.4545 1.63636C11.0028 1.63636 10.6172 1.79616 10.2976 2.11577C9.97798 2.43537 9.81818 2.82102 9.81818 3.27273C9.81818 3.72443 9.97798 4.11009 10.2976 4.42969C10.6172 4.74929 11.0028 4.90909 11.4545 4.90909C11.9063 4.90909 12.2919 4.74929 12.6115 4.42969C12.9311 4.11009 13.0909 3.72443 13.0909 3.27273ZM18.8182 5.72727C18.8182 5.27557 18.6584 4.88992 18.3388 4.57031C18.0192 4.25071 17.6335 4.09091 17.1818 4.09091C16.7301 4.09091 16.3445 4.25071 16.0249 4.57031C15.7053 4.88992 15.5455 5.27557 15.5455 5.72727C15.5455 6.17898 15.7053 6.56463 16.0249 6.88423C16.3445 7.20384 16.7301 7.36364 17.1818 7.36364C17.6335 7.36364 18.0192 7.20384 18.3388 6.88423C18.6584 6.56463 18.8182 6.17898 18.8182 5.72727ZM22.9091 11.4545C22.9091 13.679 22.3082 15.7372 21.1065 17.6293C20.9446 17.8764 20.7145 18 20.4162 18H2.4929C2.1946 18 1.96449 17.8764 1.80256 17.6293C0.600852 15.7457 0 13.6875 0 11.4545C0 9.90341 0.302557 8.42045 0.90767 7.00568C1.51278 5.59091 2.3267 4.37216 3.34943 3.34943C4.37216 2.3267 5.59091 1.51278 7.00568 0.90767C8.42045 0.302557 9.90341 0 11.4545 0C13.0057 0 14.4886 0.302557 15.9034 0.90767C17.3182 1.51278 18.5369 2.3267 19.5597 3.34943C20.5824 4.37216 21.3963 5.59091 22.0014 7.00568C22.6065 8.42045 22.9091 9.90341 22.9091 11.4545Z" fill="#181C1F"/>
</svg>
