<svg width="24" height="11" viewBox="0 0 24 11" fill="none" xmlns="http://www.w3.org/2000/svg">
<path d="M23.952 0.00600004C23.947 0.00400004 23.943 0 23.938 0C23.929 0 23.922 0.00599982 23.915 0.00899982C8.787 1.532 1.676 8.111 0 9.729L0.223 10.079H2.867C9.739 3.171 19.023 0.878 23.932 0.123L23.938 0.125C23.942 0.125 23.944 0.121 23.948 0.121C23.977 0.115 24 0.0929998 24 0.0619998C24 0.0329998 23.979 0.013 23.952 0.00600004ZM0.38 3.549L0.22 3.851L3.465 6.217C4.12261 5.83537 4.79371 5.47747 5.477 5.144L3.3 3.549H0.38ZM7.592 6.691C7.056 7.086 6.508 7.509 5.918 8.004L8.77 10.082H11.727L11.85 9.809L7.592 6.691Z" fill="#181C1F"/>
</svg>
