<svg width="18" height="18" viewBox="0 0 18 18" fill="none" xmlns="http://www.w3.org/2000/svg">
<path d="M17.739 16.4603L16.4611 17.7383C16.2924 17.9059 16.0643 18 15.8266 18C15.5888 18 15.3607 17.9059 15.1921 17.7383L4.50053 7.06472C4.20788 7.1495 3.90522 7.1949 3.60057 7.19971C3.02757 7.19931 2.46294 7.06212 1.95363 6.79956C1.44432 6.537 1.00504 6.15665 0.672323 5.69014C0.339604 5.22363 0.123054 4.68443 0.0406776 4.11738C-0.0416985 3.55033 0.0124789 2.9718 0.198706 2.4299L2.48462 4.71581L2.9616 4.23883L4.23954 2.96088L4.71653 2.4839L2.43062 0.197992C2.97252 0.0117655 3.55104 -0.042412 4.11809 0.0399642C4.68515 0.12234 5.22434 0.33889 5.69085 0.671609C6.15736 1.00433 6.53771 1.4436 6.80027 1.95291C7.06283 2.46222 7.20002 3.02685 7.20043 3.59986C7.19561 3.90451 7.15022 4.20716 7.06543 4.49982L17.739 15.1914C17.9066 15.36 18.0007 15.5881 18.0007 15.8259C18.0007 16.0636 17.9066 16.2917 17.739 16.4603ZM0.261703 15.1914C0.0940839 15.36 0 15.5881 0 15.8259C0 16.0636 0.0940839 16.2917 0.261703 16.4603L1.53965 17.7383C1.70827 17.9059 1.93637 18 2.17413 18C2.41188 18 2.63998 17.9059 2.8086 17.7383L7.73141 12.8245L5.18451 10.2776L0.261703 15.1914ZM16.2001 0L12.6002 1.79993V3.59986L10.6473 5.55278L12.4472 7.35271L14.4001 5.39979H16.2001L18 1.79993L16.2001 0Z" fill="#181C1F"/>
</svg>
